<?xml version="1.0" encoding="iso-8859-1"?>
<svg height="800px" width="800px" viewBox="0 0 512 512" xmlns="http://www.w3.org/2000/svg">
  <g>
    <linearGradient id="SVGID_1_" x1="191.9869" y1="169.4764" x2="579.4863" y2="329.1731">
      <stop offset="0" style="stop-color:#F0F0F0"/>
      <stop offset="1" style="stop-color:#FFFFFF"/>
    </linearGradient>
    <path style="fill:url(#SVGID_1_);" d="M476.803,274.568h-72.824c51.244-24.467,85.819-78.23,81.939-139.638 c-2.603-41.2-22.941-77.88-53.323-102.579c-8.446-6.834-17.601-12.701-27.336-17.537c-16.569-8.188-34.815-13.281-54.028-14.506 c-64.343-4.062-120.369,34.106-142.999,89.552c-1.639,4.02-3.099,8.127-4.377,12.317c-0.404-0.061-0.819-0.084-1.225-0.14 c0.399,0.053,0.806,0.077,1.203,0.133c1.29-4.19,2.772-8.317,4.384-12.314c-5.867-1.032-11.992-1.612-18.181-1.612 c-57.896,0-104.896,46.935-104.896,104.832c0,2.965,0.193,5.931,0.387,8.897c-6.705-1.87-14.055-2.385-21.598-1.289 c-23.274,3.546-41.584,23.016-43.712,46.42c-0.967,10.444,1.161,20.309,5.545,28.754C10.96,279.975,0,293.643,0,309.762 c0,2.128,0.194,4.191,0.58,6.189c2.514,14.442,13.99,25.853,28.432,28.432c1.999,0.387,4.062,0.58,6.189,0.58h84.78 l0.002-0.002h356.819c19.358,0,35.196-15.838,35.196-35.196C512,290.406,496.162,274.568,476.803,274.568z"/>
    <path style="fill:#F7EC88;" d="M432.607,32.339L308.176,156.77c-6.254,1.031-12.314,2.772-17.988,5.222c-11.476-37.136-43.003-65.31-81.944-72.144C230.874,34.402,286.9-3.766,351.243,0.296c19.213,1.225,37.458,6.318,54.028,14.506C415.006,19.637,424.161,25.505,432.607,32.339z"/>
  </g>
</svg>
